<?xml version="1.0" encoding="utf-8"?>
<svg width="19px" height="19px" viewBox="0 0 19 19" version="1.1" xmlns:xlink="http://www.w3.org/1999/xlink" xmlns="http://www.w3.org/2000/svg">
  <path d="M0.464928 0.464932C0.762617 0.167244 1.16637 4.20626e-06 1.58736 4.20626e-06L17.4109 4.20626e-06C17.6195 -0.000336543 17.8262 0.0404767 18.019 0.120107C18.2119 0.199738 18.3871 0.316622 18.5347 0.464067C18.6823 0.611513 18.7994 0.786624 18.8792 0.979376C18.9591 1.17213 19.0001 1.37873 19 1.58737L19 17.4109C19.0002 17.6196 18.9593 17.8262 18.8796 18.0191C18.7999 18.2119 18.6829 18.3872 18.5354 18.5348C18.3879 18.6824 18.2127 18.7994 18.0199 18.8792C17.8271 18.9591 17.6204 19.0001 17.4118 19L1.58736 19C1.37884 19 1.17235 18.9589 0.979706 18.8791C0.787062 18.7993 0.612034 18.6823 0.464623 18.5348C0.317211 18.3873 0.200305 18.2122 0.120583 18.0195C0.0408614 17.8268 -0.000113219 17.6203 2.34961e-07 17.4118L2.34961e-07 1.58737C2.34961e-07 1.16637 0.16724 0.76262 0.464928 0.464932ZM10.0933 7.24418L10.0933 8.53618C10.4647 7.79346 11.4147 7.125 12.8423 7.125C15.5791 7.125 16.2277 8.60441 16.2277 11.3188L16.2277 16.3469L13.458 16.3469L13.458 11.9372C13.458 10.3913 13.0867 9.519 12.1436 9.519C10.8352 9.519 10.2911 10.4595 10.2911 11.9372L10.2911 16.3469L7.52054 16.3469L7.52054 7.24418L10.0933 7.24418ZM5.54109 16.2286L5.54109 7.125L2.77055 7.125L2.77055 16.2277L2.77055 16.2286L5.54109 16.2286ZM5.81334 4.84959C5.72617 5.07027 5.5958 5.27132 5.42988 5.44094C5.26396 5.61055 5.06583 5.74532 4.84712 5.83732C4.62841 5.92933 4.39352 5.97673 4.15625 5.97673C3.91897 5.97673 3.68409 5.92933 3.46538 5.83732C3.24667 5.74532 3.04854 5.61055 2.88262 5.44094C2.7167 5.27132 2.58633 5.07027 2.49916 4.84959C2.41199 4.62891 2.36978 4.39304 2.375 4.15582C2.38525 3.69019 2.57742 3.24709 2.91035 2.92141C3.24329 2.59573 3.69051 2.41336 4.15625 2.41336C4.62199 2.41336 5.06921 2.59573 5.40214 2.92141C5.73508 3.24709 5.92725 3.69019 5.9375 4.15582L5.9375 4.15582C5.94272 4.39304 5.90051 4.62891 5.81334 4.84959Z" id="Vector" fill="#FFFFFF" fill-rule="evenodd" stroke="none" />
</svg>