<?xml version="1.0" encoding="utf-8"?>
<svg width="16px" height="19px" viewBox="0 0 16 19" version="1.1" xmlns:xlink="http://www.w3.org/1999/xlink" xmlns="http://www.w3.org/2000/svg">
  <path d="M11.4044 0C11.4649 1.21191 11.8873 2.44638 12.7471 3.30321C13.6052 4.18141 14.819 4.5834 16 4.71938L16 7.90739C14.8933 7.86998 13.7814 7.63247 12.7771 7.14082C12.3397 6.93656 11.9322 6.67351 11.5334 6.40453C11.5282 8.7179 11.5426 11.0283 11.519 13.3322C11.4591 14.439 11.1052 15.5405 10.4813 16.4525C9.4776 17.9708 7.73549 18.9606 5.94619 18.9915C4.84866 19.0562 3.7523 18.7475 2.81707 18.1786C1.26719 17.2357 0.176575 15.5096 0.0177231 13.657C-0.00228119 13.2646 -0.00535583 12.8715 0.00852203 12.4789C0.146645 10.9725 0.868927 9.53138 1.99004 8.55105C3.2608 7.40921 5.04089 6.8653 6.7076 7.18713C6.72314 8.35985 6.67768 9.53138 6.67768 10.7041C5.91626 10.45 5.0265 10.5212 4.3612 10.998C3.87444 11.3289 3.50661 11.8156 3.31432 12.3833C3.15548 12.7847 3.20094 13.2306 3.21015 13.657C3.39259 14.9562 4.60349 16.0481 5.89612 15.93C6.75307 15.9205 7.57434 15.4074 8.02095 14.6563C8.16541 14.3933 8.32713 14.1243 8.33576 13.8149C8.41116 12.3988 8.38123 10.9885 8.39043 9.57235C8.39677 6.38078 8.38123 3.19811 8.40482 0.0166259C9.40854 0 10.4071 0.00950051 11.4044 0Z" id="Vector-Copy-2" fill="#FFFFFF" stroke="none" />
</svg>