<?xml version="1.0" encoding="utf-8"?>
<svg width="19px" height="18px" viewBox="0 0 19 18" version="1.1" xmlns:xlink="http://www.w3.org/1999/xlink" xmlns="http://www.w3.org/2000/svg">
  <path d="M14.3585 3.06816C14.7759 4.02824 14.6767 5.65327 14.5936 6.96149L14.5936 7.00847C14.5841 7.15302 14.5752 7.28794 14.5687 7.41924C14.6274 7.45357 14.7295 7.49152 14.8869 7.49152C15.122 7.47887 15.4063 7.39455 15.7032 7.24999C15.8332 7.17771 15.9751 7.16507 16.0713 7.16507C16.2137 7.16507 16.3556 7.19036 16.4732 7.23734C16.8288 7.3566 17.0544 7.62342 17.0544 7.91193C17.0669 8.27271 16.7451 8.58652 16.0926 8.84972C16.0244 8.87141 15.9288 8.90935 15.8207 8.94368C15.4651 9.0533 14.9207 9.23219 14.7664 9.59598C14.6951 9.77487 14.72 10.0164 14.8619 10.2923L14.8744 10.3049C14.9207 10.4145 16.0802 13.0936 18.6651 13.5267C18.8693 13.5646 19.0112 13.7429 18.9993 13.9374C18.9989 13.999 18.9862 14.0599 18.9619 14.1163C18.7731 14.5741 17.9538 14.9102 16.4726 15.139C16.4263 15.2113 16.377 15.4402 16.3426 15.5968C16.3163 15.7461 16.2812 15.8938 16.2375 16.0389C16.1758 16.2551 16.0208 16.3653 15.7952 16.3653L15.7738 16.3653C15.6658 16.3653 15.5263 16.34 15.347 16.3057C15.0157 16.2332 14.6778 16.1965 14.3389 16.1961C14.1008 16.1961 13.8657 16.2087 13.6152 16.2557C13.142 16.3406 12.7277 16.6291 12.2515 16.9676C11.5777 17.4477 10.8077 18 9.64466 18C9.59836 18 9.55205 17.9874 9.50218 17.9874L9.38463 17.9874C8.2222 17.9874 7.46466 17.4477 6.78727 16.955C6.31411 16.6159 5.91219 16.3274 5.43605 16.2431C5.19343 16.2067 4.94868 16.1868 4.70345 16.1834C4.27659 16.1834 3.94591 16.2557 3.69537 16.3057C3.55525 16.3391 3.41234 16.3591 3.26852 16.3653C2.97168 16.3653 2.85413 16.1834 2.80782 16.0262C2.75854 15.8726 2.73658 15.7124 2.69978 15.5715C2.66237 15.4269 2.61607 15.1734 2.56976 15.1137C1.05171 14.9349 0.235397 14.5994 0.0436401 14.129C0.0175247 14.0718 0.00279999 14.01 0.000297546 13.9471C-0.00348663 13.8492 0.0285721 13.7534 0.0902863 13.6781C0.152008 13.6028 0.239021 13.5534 0.334541 13.5393C2.91647 13.1062 4.0789 10.4242 4.12521 10.3115L4.13767 10.2898C4.28015 10.0104 4.31696 9.77246 4.23325 9.59056C4.0789 9.24243 3.53449 9.06354 3.17887 8.94128C3.08471 8.91751 2.99259 8.88609 2.9034 8.84731C2.02832 8.49617 1.9078 8.10045 1.95708 7.82459C2.02832 7.43851 2.48901 7.18795 2.88144 7.18795C2.99602 7.18795 3.09457 7.20964 3.18422 7.24758C3.5149 7.40117 3.80877 7.4861 4.0593 7.4861C4.24156 7.4861 4.36208 7.43912 4.42738 7.40479L4.38998 6.94703C4.31281 5.64183 4.21069 4.01379 4.63102 3.06334C5.84926 0.230684 8.49945 0.0138531 9.28133 0.0138531L9.61201 0.00120461L9.66485 0C10.4473 0 13.1064 0.222854 14.3585 3.06816Z" id="Vector-Copy-3" fill="#FFFFFF" stroke="none" />
</svg>